<svg xmlns="http://www.w3.org/2000/svg" xmlns:xlink="http://www.w3.org/1999/xlink" width="204" height="204" viewBox="0 0 204 204"><defs><style>.a{clip-path:url(#b);}.b{fill:#fff;}.c,.e{fill:none;}.c{stroke:#fff;}.d{stroke:none;}</style><clipPath id="b"><rect width="204" height="204"/></clipPath></defs><g id="a" class="a"><path class="b" d="M58.293,35.08l-.039-.026-19.127,27.1a34,34,0,0,1-3.732-3.044L58.163,34.98l-.031-.032-.031-.033-25.272,21.5a33.982,33.982,0,0,1-2.868-3.9l28.071-17.7-.024-.039c-.006-.013-.013-.027-.02-.04L28.153,49.267A33.915,33.915,0,0,1,26.358,44.8L57.945,34.634l-.012-.044c0-.015-.008-.029-.011-.044L25.416,41.221a34.183,34.183,0,0,1-.631-4.766l33.122-2.025v-.09L24.76,32.745a33.94,33.94,0,0,1,.577-4.8l32.584,6.278.009-.044c0-.015.009-.029.013-.044l-31.7-9.812A33.858,33.858,0,0,1,28,19.82L57.985,34.027l.021-.04.023-.04L29.77,16.565a34.141,34.141,0,0,1,2.8-3.909L58.1,33.851l.03-.033.033-.034L35.11,9.919a33.93,33.93,0,0,1,3.716-3.11l19.422,26.9.037-.026.04-.023L41.962,4.8a33.853,33.853,0,0,1,4.352-2.074L58.431,33.61l.042-.015.044-.013L49.833,1.557A34.222,34.222,0,0,1,54.549.626l4.082,32.933.045,0,.045,0L58.252.367a33.991,33.991,0,0,1,4.824.269L58.838,33.56l.045.007a.343.343,0,0,1,.044.009L66.741,1.31a33.734,33.734,0,0,1,4.615,1.468L59.038,33.612l.041.018.041.02,15.6-29.313a34.313,34.313,0,0,1,4.089,2.558L59.221,33.713l.036.028.034.029L81.676,9.236a33.8,33.8,0,0,1,3.337,3.507L59.37,33.854c.01.011.019.023.028.035s.017.025.025.037l27.8-18.182a33.748,33.748,0,0,1,2.347,4.218L59.481,34.029l.018.041.016.043L90.95,23.4a34.057,34.057,0,0,1,1.222,4.647L59.544,34.226c0,.014.006.03.008.045l0,.045,33.1-2.593a33.919,33.919,0,0,1,.033,4.818L59.557,34.432l0,.045-.006.045,32.7,5.716a33.775,33.775,0,0,1-1.177,4.7l-31.552-10.3a.45.45,0,0,1-.016.044c0,.014-.011.028-.017.041L89.712,48.411a34.047,34.047,0,0,1-2.3,4.226L59.429,34.824l-.026.037-.028.036L85.257,55.649a34,34,0,0,1-3.288,3.545L59.3,34.982l-.035.031-.035.027L79.106,61.591A33.994,33.994,0,0,1,75.035,64.2L59.128,35.1l-.04.021-.041.018L71.683,65.8a34.4,34.4,0,0,1-4.569,1.513L58.935,35.18l-.044.01-.045.008,4.635,32.833a34.108,34.108,0,0,1-4.805.336l.054-33.161h-.046l-.044,0-3.68,32.96a33.844,33.844,0,0,1-4.764-.876l8.329-32.1a.35.35,0,0,1-.043-.013l-.043-.014-11.791,31a33.9,33.9,0,0,1-4.369-2.026L58.332,35.1l-.04-.023Z" transform="translate(-24.76 -0.367)"/><path class="b" d="M58.293,35.08l-.039-.026-19.127,27.1a34,34,0,0,1-3.732-3.044L58.163,34.98l-.031-.032-.031-.033-25.272,21.5a33.982,33.982,0,0,1-2.868-3.9l28.071-17.7-.024-.039c-.006-.013-.013-.027-.02-.04L28.153,49.267A33.915,33.915,0,0,1,26.358,44.8L57.945,34.634l-.012-.044c0-.015-.008-.029-.011-.044L25.416,41.221a34.183,34.183,0,0,1-.631-4.766l33.122-2.025v-.09L24.76,32.745a33.94,33.94,0,0,1,.577-4.8l32.584,6.278.009-.044c0-.015.009-.029.013-.044l-31.7-9.812A33.858,33.858,0,0,1,28,19.82L57.985,34.027l.021-.04.023-.04L29.77,16.565a34.141,34.141,0,0,1,2.8-3.909L58.1,33.851l.03-.033.033-.034L35.11,9.919a33.93,33.93,0,0,1,3.716-3.11l19.422,26.9.037-.026.04-.023L41.962,4.8a33.853,33.853,0,0,1,4.352-2.074L58.431,33.61l.042-.015.044-.013L49.833,1.557A34.222,34.222,0,0,1,54.549.626l4.082,32.933.045,0,.045,0L58.252.367a33.991,33.991,0,0,1,4.824.269L58.838,33.56l.045.007a.343.343,0,0,1,.044.009L66.741,1.31a33.734,33.734,0,0,1,4.615,1.468L59.038,33.612l.041.018.041.02,15.6-29.313a34.313,34.313,0,0,1,4.089,2.558L59.221,33.713l.036.028.034.029L81.676,9.236a33.8,33.8,0,0,1,3.337,3.507L59.37,33.854c.01.011.019.023.028.035s.017.025.025.037l27.8-18.182a33.748,33.748,0,0,1,2.347,4.218L59.481,34.029l.018.041.016.043L90.95,23.4a34.057,34.057,0,0,1,1.222,4.647L59.544,34.226c0,.014.006.03.008.045l0,.045,33.1-2.593a33.919,33.919,0,0,1,.033,4.818L59.557,34.432l0,.045-.006.045,32.7,5.716a33.775,33.775,0,0,1-1.177,4.7l-31.552-10.3a.45.45,0,0,1-.016.044c0,.014-.011.028-.017.041L89.712,48.411a34.047,34.047,0,0,1-2.3,4.226L59.429,34.824l-.026.037-.028.036L85.257,55.649a34,34,0,0,1-3.288,3.545L59.3,34.982l-.035.031-.035.027L79.106,61.591A33.994,33.994,0,0,1,75.035,64.2L59.128,35.1l-.04.021-.041.018L71.683,65.8a34.4,34.4,0,0,1-4.569,1.513L58.935,35.18l-.044.01-.045.008,4.635,32.833a34.108,34.108,0,0,1-4.805.336l.054-33.161h-.046l-.044,0-3.68,32.96a33.844,33.844,0,0,1-4.764-.876l8.329-32.1a.35.35,0,0,1-.043-.013l-.043-.014-11.791,31a33.9,33.9,0,0,1-4.369-2.026L58.332,35.1l-.04-.023Z" transform="translate(-24.76 135.633)"/><path class="b" d="M58.293,35.08l-.039-.026-19.127,27.1a34,34,0,0,1-3.732-3.044L58.163,34.98l-.031-.032-.031-.033-25.272,21.5a33.982,33.982,0,0,1-2.868-3.9l28.071-17.7-.024-.039c-.006-.013-.013-.027-.02-.04L28.153,49.267A33.915,33.915,0,0,1,26.358,44.8L57.945,34.634l-.012-.044c0-.015-.008-.029-.011-.044L25.416,41.221a34.183,34.183,0,0,1-.631-4.766l33.122-2.025v-.09L24.76,32.745a33.94,33.94,0,0,1,.577-4.8l32.584,6.278.009-.044c0-.015.009-.029.013-.044l-31.7-9.812A33.858,33.858,0,0,1,28,19.82L57.985,34.027l.021-.04.023-.04L29.77,16.565a34.141,34.141,0,0,1,2.8-3.909L58.1,33.851l.03-.033.033-.034L35.11,9.919a33.93,33.93,0,0,1,3.716-3.11l19.422,26.9.037-.026.04-.023L41.962,4.8a33.853,33.853,0,0,1,4.352-2.074L58.431,33.61l.042-.015.044-.013L49.833,1.557A34.222,34.222,0,0,1,54.549.626l4.082,32.933.045,0,.045,0L58.252.367a33.991,33.991,0,0,1,4.824.269L58.838,33.56l.045.007a.343.343,0,0,1,.044.009L66.741,1.31a33.734,33.734,0,0,1,4.615,1.468L59.038,33.612l.041.018.041.02,15.6-29.313a34.313,34.313,0,0,1,4.089,2.558L59.221,33.713l.036.028.034.029L81.676,9.236a33.8,33.8,0,0,1,3.337,3.507L59.37,33.854c.01.011.019.023.028.035s.017.025.025.037l27.8-18.182a33.748,33.748,0,0,1,2.347,4.218L59.481,34.029l.018.041.016.043L90.95,23.4a34.057,34.057,0,0,1,1.222,4.647L59.544,34.226c0,.014.006.03.008.045l0,.045,33.1-2.593a33.919,33.919,0,0,1,.033,4.818L59.557,34.432l0,.045-.006.045,32.7,5.716a33.775,33.775,0,0,1-1.177,4.7l-31.552-10.3a.45.45,0,0,1-.016.044c0,.014-.011.028-.017.041L89.712,48.411a34.047,34.047,0,0,1-2.3,4.226L59.429,34.824l-.026.037-.028.036L85.257,55.649a34,34,0,0,1-3.288,3.545L59.3,34.982l-.035.031-.035.027L79.106,61.591A33.994,33.994,0,0,1,75.035,64.2L59.128,35.1l-.04.021-.041.018L71.683,65.8a34.4,34.4,0,0,1-4.569,1.513L58.935,35.18l-.044.01-.045.008,4.635,32.833a34.108,34.108,0,0,1-4.805.336l.054-33.161h-.046l-.044,0-3.68,32.96a33.844,33.844,0,0,1-4.764-.876l8.329-32.1a.35.35,0,0,1-.043-.013l-.043-.014-11.791,31a33.9,33.9,0,0,1-4.369-2.026L58.332,35.1l-.04-.023Z" transform="translate(111.24 -0.367)"/><path class="b" d="M58.293,35.08l-.039-.026-19.127,27.1a34,34,0,0,1-3.732-3.044L58.163,34.98l-.031-.032-.031-.033-25.272,21.5a33.982,33.982,0,0,1-2.868-3.9l28.071-17.7-.024-.039c-.006-.013-.013-.027-.02-.04L28.153,49.267A33.915,33.915,0,0,1,26.358,44.8L57.945,34.634l-.012-.044c0-.015-.008-.029-.011-.044L25.416,41.221a34.183,34.183,0,0,1-.631-4.766l33.122-2.025v-.09L24.76,32.745a33.94,33.94,0,0,1,.577-4.8l32.584,6.278.009-.044c0-.015.009-.029.013-.044l-31.7-9.812A33.858,33.858,0,0,1,28,19.82L57.985,34.027l.021-.04.023-.04L29.77,16.565a34.141,34.141,0,0,1,2.8-3.909L58.1,33.851l.03-.033.033-.034L35.11,9.919a33.93,33.93,0,0,1,3.716-3.11l19.422,26.9.037-.026.04-.023L41.962,4.8a33.853,33.853,0,0,1,4.352-2.074L58.431,33.61l.042-.015.044-.013L49.833,1.557A34.222,34.222,0,0,1,54.549.626l4.082,32.933.045,0,.045,0L58.252.367a33.991,33.991,0,0,1,4.824.269L58.838,33.56l.045.007a.343.343,0,0,1,.044.009L66.741,1.31a33.734,33.734,0,0,1,4.615,1.468L59.038,33.612l.041.018.041.02,15.6-29.313a34.313,34.313,0,0,1,4.089,2.558L59.221,33.713l.036.028.034.029L81.676,9.236a33.8,33.8,0,0,1,3.337,3.507L59.37,33.854c.01.011.019.023.028.035s.017.025.025.037l27.8-18.182a33.748,33.748,0,0,1,2.347,4.218L59.481,34.029l.018.041.016.043L90.95,23.4a34.057,34.057,0,0,1,1.222,4.647L59.544,34.226c0,.014.006.03.008.045l0,.045,33.1-2.593a33.919,33.919,0,0,1,.033,4.818L59.557,34.432l0,.045-.006.045,32.7,5.716a33.775,33.775,0,0,1-1.177,4.7l-31.552-10.3a.45.45,0,0,1-.016.044c0,.014-.011.028-.017.041L89.712,48.411a34.047,34.047,0,0,1-2.3,4.226L59.429,34.824l-.026.037-.028.036L85.257,55.649a34,34,0,0,1-3.288,3.545L59.3,34.982l-.035.031-.035.027L79.106,61.591A33.994,33.994,0,0,1,75.035,64.2L59.128,35.1l-.04.021-.041.018L71.683,65.8a34.4,34.4,0,0,1-4.569,1.513L58.935,35.18l-.044.01-.045.008,4.635,32.833a34.108,34.108,0,0,1-4.805.336l.054-33.161h-.046l-.044,0-3.68,32.96a33.844,33.844,0,0,1-4.764-.876l8.329-32.1a.35.35,0,0,1-.043-.013l-.043-.014-11.791,31a33.9,33.9,0,0,1-4.369-2.026L58.332,35.1l-.04-.023Z" transform="translate(111.24 135.633)"/><g class="c" transform="translate(34 34)"><rect class="d" width="136" height="136"/><rect class="e" x="0.5" y="0.5" width="135" height="135"/></g></g></svg>