<svg xmlns="http://www.w3.org/2000/svg" width="72.79" height="43.91" viewBox="0 0 72.79 43.91"><defs><style>.a{fill:#f26a74;}</style></defs><path class="a" d="M62.88,36.33l1.22-1.75-10.91-6.5Z"/><path class="a" d="M53.91,27.32l12,4.06.54-2.06Z"/><path class="a" d="M66.28,24.11l-12.5,2.33,12.69-.21Z"/><path class="a" d="M7.26,20.33l12.56-2.17L7.1,18.2Z"/><path class="a" d="M7.73,12.5l-.58,2.05L19.6,17.13Z"/><path class="a" d="M10.36,7.69,9,9.36l10.48,7.15Z"/><path class="a" d="M54.9,21.84c-1-6-6.83-11.7-14.92-14S23.64,7.34,19.65,12L7.2,0,0,26.36l17.61-4.22c1.63,5.46,7.13,10.52,14.6,12.67,8,2.3,15.89.57,20-3.85l13.4,12.95,7.2-26.37Zm9.24,19.81L52.2,29.6c-3.56,4.56-11.43,6.4-19.5,4.08-7.68-2.2-13.21-7.5-14.25-13L2.18,25,8.33,2.47,19.71,14c3.27-5.07,11.54-7.21,20-4.78,8.26,2.37,14,8.32,14.4,14.21l16.16-4.26Z"/><path class="a" d="M31.86,24.83c-4.05-3.76-4.55-8.18-1.13-9.88A6.7,6.7,0,0,1,32,14.52c-3-.79-6-.75-8.11.3-4.4,2.18-3.75,7.86,1.44,12.69s13,7,17.36,4.78a4.91,4.91,0,0,0,2.85-3.7C42.15,30.3,35.91,28.59,31.86,24.83Z"/></svg>