<svg id="レイヤー_1" data-name="レイヤー 1" xmlns="http://www.w3.org/2000/svg" width="58.81" height="290.62" viewBox="0 0 58.81 290.62"><defs><style>.cls-1{isolation:isolate;}.cls-2{fill:#444444;}</style></defs><g id="colorful" data-name="colorful" class="cls-1"><g class="cls-1"><path class="cls-2" d="M31.43,53.42,24.85,46.9h6.44a119.66,119.66,0,0,0,2.38-24.5c0-4.34-4.83-3.22-7.77-3.22-2,9.94-5.39,21.7-10.92,30.24L7.91,47.75c3.43-9.32,6.3-19,8.89-28.57H2.1L6,9.45l2.66,3h9.94c1.05-4.13,2-8.33,2.8-12.46l7.07,2.73c-.28,3.29-.77,6.51-1.26,9.73h4.27c2.31,0,5.18.07,7.14,1.4C43,16.8,42.49,28.42,42.49,33,42.49,40,40.11,52.86,31.43,53.42Zm23-18.14-8-5.18,4.2-1.05L47.89,9.94c4.76,2.73,10.92,8.61,10.92,14.63A17.2,17.2,0,0,1,54.47,35.28Z"/></g><g class="cls-1"><path class="cls-2" d="M52.29,122.68c-2.86,7.15-9.24,10.44-16.66,11.07l-7-5.54c5.6-.21,11.27-2.17,13.79-7.63a10.26,10.26,0,0,0,1-4.06c0-3.85-2-7.14-6.09-7.14-3.85,0-18.34,10.15-21.28,12.25-4.48-5.6-5.81-13.3-5.81-20.3a52.13,52.13,0,0,1,1-10.43l8.61-2.1v21.56c4.76-2.38,15.19-7,20.72-7,7.42,0,12.89,6.44,12.89,13.65A17.21,17.21,0,0,1,52.29,122.68Zm-16-29.26L25.48,91.74l4.62-4.06-6.86-10.5c6,0,14.7,2.38,14.7,9.66A15.28,15.28,0,0,1,36.26,93.42Z"/></g><g class="cls-1"><path class="cls-2" d="M18.13,190.55c-1.54,5.32-5.88,12.81-12.11,12.81a10.81,10.81,0,0,1-2.1-.28L0,197.9ZM27,175.36l2.1-5.53L14.77,161.5A31.55,31.55,0,0,1,24.36,160c7.21,0,12.88,3,14.63,10.5Zm.35,34.72-.84-.06-7.35-7.78h8.68a32.14,32.14,0,0,0,.7-6.86,43.55,43.55,0,0,0-3-14.91c7.7.91,11.27,8.75,11.27,15.75C36.82,202,34.37,210.36,27.37,210.08Zm25.77-5.67-9.81-1.61,5.05-4.27-4.84-11.76c5.33.49,12.61,3.64,12.61,10.08A11.69,11.69,0,0,1,53.14,204.41Z"/></g><g class="cls-1"><path class="cls-2" d="M51.46,278c-3.08,8.4-10.44,12-19,12.6l-4.34-4.41A23.93,23.93,0,0,0,37.8,283c-1.61-2.38-4.83-6.37-8-6.37-2.31,0-3.36,2.31-3.36,4.34a15.84,15.84,0,0,0,1.05,5.11l-5.88,2A7.57,7.57,0,0,1,19,282.71a11.41,11.41,0,0,1,11.34-11.27c4.69,0,9.24,2.8,12.67,5.88a14.38,14.38,0,0,0,1.12-5.67c0-5-2.17-10.22-8.05-10.22-4.62,0-9.94,2.1-13.93,4.34l-9,13-6-3.57A168.7,168.7,0,0,1,24.5,246.73H9.59L13,237.14l2.1,2.87h15l2.45-2.45,6.51,3.64L27.44,258.07a33.53,33.53,0,0,1,7.91-1c9.53,0,17.3,4.83,17.3,15.19A18.55,18.55,0,0,1,51.46,278Z"/></g></g></svg>