<svg id="レイヤー_1" data-name="レイヤー 1" xmlns="http://www.w3.org/2000/svg" width="178.66" height="38.79" viewBox="0 0 178.66 38.79"><defs><style>.cls-1{isolation:isolate;}.cls-2{fill:#444444;}</style></defs><g id="colorful" class="cls-1"><g class="cls-1"><path class="cls-2" d="M20.11,37.87,15.6,33.41H20a82.15,82.15,0,0,0,1.63-16.8c0-3-3.31-2.21-5.33-2.21-1.39,6.82-3.69,14.88-7.49,20.74L4,34C6.34,27.6,8.3,21,10.08,14.4H0L2.64,7.73,4.46,9.79h6.82C12,7,12.63,4.08,13.2,1.25l4.85,1.87c-.19,2.26-.53,4.46-.86,6.67h2.92c1.59,0,3.56.05,4.9,1,3,2,2.69,10,2.69,13.11C27.7,28.66,26.07,37.49,20.11,37.87Zm15.8-12.43-5.52-3.55,2.88-.72L31.39,8.06c3.27,1.88,7.49,5.91,7.49,10A11.78,11.78,0,0,1,35.91,25.44Z"/><path class="cls-2" d="M82.42,31.2c-2,4.9-6.34,7.15-11.43,7.59L66.19,35c3.84-.14,7.73-1.48,9.46-5.23A7.11,7.11,0,0,0,76.37,27c0-2.64-1.34-4.9-4.18-4.9-2.64,0-12.57,7-14.59,8.4-3.07-3.84-4-9.12-4-13.92a35.71,35.71,0,0,1,.67-7.15L60.19,8V22.75C63.46,21.12,70.61,18,74.4,18c5.09,0,8.83,4.42,8.83,9.36A12,12,0,0,1,82.42,31.2Zm-11-20.06L64,10,67.2,7.2,62.5,0c4.08,0,10.08,1.63,10.08,6.63A10.5,10.5,0,0,1,71.43,11.14Z"/><path class="cls-2" d="M107,23.57c-1,3.65-4,8.78-8.3,8.78a7.11,7.11,0,0,1-1.44-.19l-2.69-3.55Zm6.1-10.42,1.44-3.79-9.84-5.71a21.63,21.63,0,0,1,6.57-1c4.95,0,8.84,2.06,10,7.2ZM113.33,37l-.58-.05-5-5.32h6a22.47,22.47,0,0,0,.48-4.71,29.85,29.85,0,0,0-2.07-10.22c5.28.62,7.73,6,7.73,10.8C119.81,31.44,118.13,37.15,113.33,37ZM131,33.07,124.27,32,127.73,29,124.42,21c3.65.33,8.64,2.49,8.64,6.91A8,8,0,0,1,131,33.07Z"/><path class="cls-2" d="M177.84,29.38c-2.11,5.76-7.15,8.26-13,8.64l-3-3a16.37,16.37,0,0,0,6.62-2.2c-1.1-1.64-3.31-4.37-5.47-4.37-1.59,0-2.3,1.58-2.3,3a11,11,0,0,0,.71,3.51l-4,1.39a5.17,5.17,0,0,1-1.82-3.7,7.82,7.82,0,0,1,7.78-7.72c3.21,0,6.33,1.92,8.68,4A9.85,9.85,0,0,0,172.8,25c0-3.46-1.49-7-5.52-7-3.17,0-6.82,1.44-9.55,3l-6.15,8.88-4.12-2.45a115.34,115.34,0,0,1,11.9-19.49H149.14l2.35-6.58,1.44,2H163.2l1.68-1.68,4.47,2.5-8,11.57A23,23,0,0,1,166.8,15c6.53,0,11.86,3.31,11.86,10.41A12.6,12.6,0,0,1,177.84,29.38Z"/></g></g></svg>